<svg width="25" height="24" viewBox="0 0 25 24" fill="none" xmlns="http://www.w3.org/2000/svg">
<path d="M12.2763 2.25C10.304 2.25 8.37596 2.82183 6.73603 3.89317C5.09611 4.96451 3.81795 6.48726 3.06317 8.26884C2.3084 10.0504 2.11091 12.0108 2.4957 13.9021C2.88048 15.7934 3.83024 17.5307 5.22488 18.8943C6.61952 20.2579 8.3964 21.1865 10.3308 21.5627C12.2652 21.9389 14.2703 21.7458 16.0925 21.0078C17.9147 20.2699 19.4721 19.0202 20.5679 17.4168C21.6637 15.8134 22.2485 13.9284 22.2485 12C22.2457 9.41498 21.1942 6.93661 19.3246 5.10872C17.4551 3.28084 14.9202 2.25273 12.2763 2.25ZM12.2763 20.25C10.6074 20.25 8.97601 19.7661 7.58838 18.8596C6.20076 17.9531 5.11923 16.6646 4.48058 15.1571C3.84192 13.6496 3.67482 11.9908 4.0004 10.3905C4.32599 8.79016 5.12963 7.32015 6.30971 6.16637C7.48979 5.01259 8.99331 4.22685 10.6301 3.90852C12.2669 3.59019 13.9636 3.75357 15.5054 4.37799C17.0472 5.00242 18.3651 6.05984 19.2923 7.41655C20.2195 8.77325 20.7143 10.3683 20.7143 12C20.7118 14.1873 19.822 16.2843 18.2401 17.8309C16.6582 19.3775 14.5134 20.2475 12.2763 20.25ZM13.8105 16.5C13.8105 16.6989 13.7297 16.8897 13.5858 17.0303C13.442 17.171 13.2468 17.25 13.0434 17.25C12.6365 17.25 12.2463 17.092 11.9586 16.8107C11.6708 16.5294 11.5092 16.1478 11.5092 15.75V12C11.3058 12 11.1107 11.921 10.9668 11.7803C10.8229 11.6397 10.7421 11.4489 10.7421 11.25C10.7421 11.0511 10.8229 10.8603 10.9668 10.7197C11.1107 10.579 11.3058 10.5 11.5092 10.5C11.9161 10.5 12.3063 10.658 12.594 10.9393C12.8818 11.2206 13.0434 11.6022 13.0434 12V15.75C13.2468 15.75 13.442 15.829 13.5858 15.9697C13.7297 16.1103 13.8105 16.3011 13.8105 16.5ZM10.7421 7.875C10.7421 7.6525 10.8096 7.43499 10.936 7.24998C11.0625 7.06498 11.2422 6.92078 11.4524 6.83564C11.6627 6.75049 11.894 6.72821 12.1172 6.77162C12.3404 6.81502 12.5455 6.92217 12.7064 7.0795C12.8673 7.23684 12.9769 7.43729 13.0213 7.65552C13.0657 7.87375 13.0429 8.09995 12.9558 8.30552C12.8687 8.51109 12.7212 8.68679 12.532 8.8104C12.3428 8.93402 12.1203 9 11.8928 9C11.5876 9 11.2949 8.88147 11.0791 8.6705C10.8633 8.45952 10.7421 8.17337 10.7421 7.875Z" fill="black"/>
</svg>
