<svg width="25" height="24" viewBox="0 0 25 24" fill="none" xmlns="http://www.w3.org/2000/svg">
<path d="M22.2485 19.5H20.4928L14.7137 3.25781C14.6092 2.96352 14.4135 2.70836 14.1539 2.52776C13.8942 2.34716 13.5835 2.25008 13.2649 2.25H11.2877C10.9692 2.25001 10.6586 2.34696 10.3989 2.52738C10.1393 2.7078 9.94358 2.96276 9.83886 3.25688L4.05977 19.5H2.30408C2.10064 19.5 1.90552 19.579 1.76166 19.7197C1.61781 19.8603 1.53699 20.0511 1.53699 20.25C1.53699 20.4489 1.61781 20.6397 1.76166 20.7803C1.90552 20.921 2.10064 21 2.30408 21H22.2485C22.452 21 22.6471 20.921 22.7909 20.7803C22.9348 20.6397 23.0156 20.4489 23.0156 20.25C23.0156 20.0511 22.9348 19.8603 22.7909 19.7197C22.6471 19.579 22.452 19.5 22.2485 19.5ZM9.15327 9.75H15.3993L17.0006 14.25H7.55196L9.15327 9.75ZM11.2877 3.75H13.2649L14.8652 8.25H9.68736L11.2877 3.75ZM7.01883 15.75H17.5338L18.8685 19.5H5.68409L7.01883 15.75Z" fill="black"/>
</svg>
