<svg width="23" height="22" viewBox="0 0 23 22" fill="none" xmlns="http://www.w3.org/2000/svg">
<path d="M11.322 5.74999C11.5254 5.74999 11.7205 5.829 11.8644 5.96966C12.0082 6.11031 12.0891 6.30107 12.0891 6.49999V11.75C12.0891 11.9489 12.0082 12.1397 11.8644 12.2803C11.7205 12.421 11.5254 12.5 11.322 12.5C11.1185 12.5 10.9234 12.421 10.7796 12.2803C10.6357 12.1397 10.5549 11.9489 10.5549 11.75V6.49999C10.5549 6.30107 10.6357 6.11031 10.7796 5.96966C10.9234 5.829 11.1185 5.74999 11.322 5.74999ZM10.1713 15.125C10.1713 15.3475 10.2388 15.565 10.3652 15.75C10.4917 15.935 10.6714 16.0792 10.8816 16.1643C11.0919 16.2495 11.3232 16.2718 11.5465 16.2284C11.7697 16.185 11.9747 16.0778 12.1356 15.9205C12.2965 15.7631 12.4061 15.5627 12.4505 15.3445C12.4949 15.1262 12.4721 14.9 12.385 14.6945C12.2979 14.4889 12.1505 14.3132 11.9612 14.1896C11.772 14.066 11.5495 14 11.322 14C11.0168 14 10.7241 14.1185 10.5083 14.3295C10.2926 14.5405 10.1713 14.8266 10.1713 15.125ZM22.0613 11C22.0619 11.1964 22.0226 11.3911 21.9457 11.5726C21.8688 11.7541 21.7559 11.9189 21.6135 12.0575L12.4036 21.0631C12.1161 21.3425 11.7273 21.4993 11.322 21.4993C10.9167 21.4993 10.5278 21.3425 10.2404 21.0631L1.03524 12.0575C0.749498 11.7764 0.589111 11.3963 0.589111 11C0.589111 10.6037 0.749498 10.2235 1.03524 9.94249L10.2452 0.93686C10.5326 0.657484 10.9215 0.500671 11.3268 0.500671C11.7321 0.500671 12.1209 0.657484 12.4084 0.93686L21.6183 9.94249C21.7599 10.0814 21.8719 10.2464 21.9479 10.4279C22.024 10.6094 22.0625 10.8039 22.0613 11ZM20.5271 11L11.322 1.99999L2.11684 11L11.322 20L20.5271 11Z" fill="black"/>
</svg>
